<svg id="Peace--Streamline-Atlas.svg" xmlns="http://www.w3.org/2000/svg" viewBox="-1 -1 32 32" height="32" width="32"><desc>Peace Streamline Icon: https://streamlinehq.com</desc><defs></defs><path d="m9.1 28.55 -0.65 -0.65a13.912500000000001 13.912500000000001 0 0 1 -4.074999999999999 -9.8375A6.05 6.05 0 0 1 6.15 13.75a5.9875 5.9875 0 0 1 4.275 -1.7249999999999999h2.2125A2.3625 2.3625 0 0 1 15 14.375a2.3625 2.3625 0 0 1 -2.3625 2.3625H9.1" fill="none" stroke="#000000" stroke-miterlimit="10" stroke-width="2"></path><path d="m9.1 16.7375 0.42500000000000004 0.17500000000000002A8.75 8.75 0 0 1 15 25" fill="none" stroke="#000000" stroke-miterlimit="10" stroke-width="2"></path><path d="M21.549999999999997 27.9a13.912500000000001 13.912500000000001 0 0 0 4.074999999999999 -9.8375" fill="none" stroke="#000000" stroke-miterlimit="10" stroke-width="2"></path><path d="M7.5 12.024999999999999 6.05 4.225a2.375 2.375 0 0 1 1.9125 -2.7375 2.3000000000000003 2.3000000000000003 0 0 1 0.41250000000000003 0 2.3625 2.3625 0 0 1 2.325 1.925l1.5375 8.75" fill="none" stroke="#000000" stroke-miterlimit="10" stroke-width="2"></path><path d="m12.962499999999999 12.5625 1.6125 -9.15a2.3625 2.3625 0 0 1 2.325 -1.9625000000000001 2.3000000000000003 2.3000000000000003 0 0 1 0.41250000000000003 0 2.375 2.375 0 0 1 1.9125 2.7375l-1.4000000000000001 7.95" fill="none" stroke="#000000" stroke-miterlimit="10" stroke-width="2"></path><path d="M18.5375 12.024999999999999s2.3625 0 2.3625 2.3625v3.5375s0 2.3625 -2.3625 2.3625 -2.3625 0 -2.3625 -2.3625v-3.5375s0 -2.3625 2.3625 -2.3625" fill="none" stroke="#000000" stroke-miterlimit="10" stroke-width="2"></path><path d="M23.2625 13.200000000000001s2.3625 0 2.3625 2.3625v2.3625s0 2.3625 -2.3625 2.3625 -2.3625 0 -2.3625 -2.3625v-2.3625s0 -2.3625 2.3625 -2.3625" fill="none" stroke="#000000" stroke-miterlimit="10" stroke-width="2"></path></svg>