<svg id="High-Five--Streamline-Atlas.svg" xmlns="http://www.w3.org/2000/svg" viewBox="-1 -1 32 32" height="32" width="32"><desc>High Five Streamline Icon: https://streamlinehq.com</desc><defs></defs><path d="M13.8125 4.2875000000000005A2.3874999999999997 2.3874999999999997 0 0 1 16.25 1.9a2.3874999999999997 2.3874999999999997 0 0 1 2.3874999999999997 2.3874999999999997" fill="none" stroke="#000000" stroke-miterlimit="10" stroke-width="2"></path><path d="M18.575 5.4875a2.3874999999999997 2.3874999999999997 0 0 1 2.3874999999999997 -2.3874999999999997 2.375 2.375 0 0 1 2.3874999999999997 2.3874999999999997" fill="none" stroke="#000000" stroke-miterlimit="10" stroke-width="2"></path><path d="M23.35 15V9.0625a2.4 2.4 0 0 1 2.3874999999999997 -2.3874999999999997 2.3874999999999997 2.3874999999999997 0 0 1 2.3874999999999997 2.3874999999999997v9.549999999999999a12.337499999999999 12.337499999999999 0 0 1 -0.8875 4.6000000000000005l-0.6125 1.5375a12.337499999999999 12.337499999999999 0 0 0 -0.8875 4.6000000000000005" fill="none" stroke="#000000" stroke-miterlimit="10" stroke-width="2"></path><path d="M10.225 29.35a5.7125 5.7125 0 0 0 -1.6875 -4.074999999999999l-5.925000000000001 -5.925000000000001a2.5 2.5 0 0 1 -0.7374999999999999 -1.7874999999999999 2.5875 2.5875 0 0 1 0.7374999999999999 -1.7999999999999998 2.5 2.5 0 0 1 3.5875000000000004 0l2.8375 2.8499999999999996V5.4875a2.375 2.375 0 0 1 2.3874999999999997 -2.3874999999999997 2.3874999999999997 2.3874999999999997 0 0 1 2.3874999999999997 2.3874999999999997V15" fill="none" stroke="#000000" stroke-miterlimit="10" stroke-width="2"></path><path d="m13.8125 15.024999999999999 0 -10.7375" fill="none" stroke="#000000" stroke-miterlimit="10" stroke-width="2"></path><path d="m18.575 15.024999999999999 0 -10.7375" fill="none" stroke="#000000" stroke-miterlimit="10" stroke-width="2"></path><path d="m23.35 15.024999999999999 0 -9.5375" fill="none" stroke="#000000" stroke-miterlimit="10" stroke-width="2"></path></svg>