<svg id="Fist--Streamline-Atlas.svg" xmlns="http://www.w3.org/2000/svg" viewBox="-1 -1 32 32" height="32" width="32"><desc>Fist Streamline Icon: https://streamlinehq.com</desc><defs></defs><path d="M7.7125 13.575A10.2 10.2 0 0 1 17.9125 23.75" fill="none" stroke="#000000" stroke-miterlimit="10" stroke-width="2"></path><path d="M25.143749999999997 3.1s2.9812499999999997 0 2.9812499999999997 2.9875000000000003v3.5749999999999997s0 2.9875000000000003 -2.9812499999999997 2.9875000000000003 -2.9812499999999997 0 -2.9812499999999997 -2.9875000000000003V6.0875s0 -2.9875000000000003 2.9812499999999997 -2.9875000000000003" fill="none" stroke="#000000" stroke-miterlimit="10" stroke-width="2"></path><path d="M19.168750000000003 1.9s2.9812499999999997 0 2.9812499999999997 2.9875000000000003v4.7625s0 2.9875000000000003 -2.9812499999999997 2.9875000000000003 -2.9812499999999997 0 -2.9812499999999997 -2.9875000000000003V4.8875s0 -2.9875000000000003 2.9812499999999997 -2.9875000000000003" fill="none" stroke="#000000" stroke-miterlimit="10" stroke-width="2"></path><path d="M14.450000000000001 12.3625A2.9625000000000004 2.9625000000000004 0 0 0 16.25 9.662500000000001V4.8875a2.9875000000000003 2.9875000000000003 0 1 0 -5.9624999999999995 0v2.8499999999999996" fill="none" stroke="#000000" stroke-miterlimit="10" stroke-width="2"></path><path d="M4.2625 9.7375V4.8875a2.9875000000000003 2.9875000000000003 0 1 1 5.9624999999999995 0v2.8499999999999996" fill="none" stroke="#000000" stroke-miterlimit="10" stroke-width="2"></path><path d="M7.8374999999999995 29.35v-2.3874999999999997l-0.9375 -0.8c-3.2125 -3.225 -5 -6.4 -5 -10.962499999999999a7.5 7.5 0 0 1 2.1625 -5.2749999999999995 7.5 7.5 0 0 1 5.2749999999999995 -2.1875h2.75A2.9125 2.9125 0 0 1 15 10.649999999999999a2.9125 2.9125 0 0 1 -2.9125 2.925h-4.375" fill="none" stroke="#000000" stroke-miterlimit="10" stroke-width="2"></path><path d="M22.1625 29.35v-2.3874999999999997l0.9375 -0.8c3.2125 -3.225 5 -6.4 5 -10.962499999999999v-6" fill="none" stroke="#000000" stroke-miterlimit="10" stroke-width="2"></path></svg>